<svg width="24" height="24" viewBox="0 0 24 24" fill="none" xmlns="http://www.w3.org/2000/svg">
<g clip-path="url(#clip0_3346_4839)">
<path d="M19.125 12.75V18H5.625V7.875H19.125V10.5V12.75Z" fill="#F4B400"/>
<path d="M6.75 7.5H5.625V17.625H19.125V16.5H15.75C13.3631 16.5 11.0739 15.5518 9.38604 13.864C7.69821 12.1761 6.75 9.88695 6.75 7.5Z" fill="#F29500"/>
<path d="M5.625 7.875H19.125V8.625H5.625V7.875Z" fill="#F29500"/>
<path d="M11.25 7.875H13.5V17.625H11.25V7.875Z" fill="#DB4437"/>
<path d="M11.25 17.6251H13.5V16.2166C12.7114 16.0128 11.9544 15.702 11.25 15.293V17.6251Z" fill="#C62E26"/>
<path d="M11.25 7.875H13.5V8.625H11.25V7.875Z" fill="#C62E26"/>
<path d="M12 1.125C12.4973 1.125 12.9742 1.32254 13.3258 1.67417C13.6775 2.02581 13.875 2.50272 13.875 3V4.875H10.125V3C10.125 2.50272 10.3225 2.02581 10.6742 1.67417C11.0258 1.32254 11.5027 1.125 12 1.125Z" fill="#DB4437"/>
<path d="M12 1.125C12.4973 1.125 12.9742 1.32254 13.3258 1.67417C13.6775 2.02581 13.875 2.50272 13.875 3V4.875H10.125V3C10.125 2.50272 10.3225 2.02581 10.6742 1.67417C11.0258 1.32254 11.5027 1.125 12 1.125Z" fill="#F4B400"/>
<path d="M12 1.125C12.4973 1.125 12.9742 1.32254 13.3258 1.67417C13.6775 2.02581 13.875 2.50272 13.875 3V4.875H10.125V3C10.125 2.50272 10.3225 2.02581 10.6742 1.67417C11.0258 1.32254 11.5027 1.125 12 1.125Z" fill="#A51E1B"/>
<path d="M17.1385 4.39217C18.3676 3.16308 18.7413 1.54401 17.9731 0.775864C17.205 0.00772123 15.5859 0.381391 14.3568 1.61048C13.1277 2.83957 12.7541 4.45864 13.5222 5.22678C14.2903 5.99493 15.9094 5.62126 17.1385 4.39217Z" fill="#DB4437"/>
<path d="M13.9912 5.52251C14.8372 5.84126 16.1238 5.41001 17.1412 4.39339C17.6938 3.85989 18.092 3.18708 18.294 2.44601C17.4483 2.12726 16.1617 2.55851 15.144 3.57514C14.5914 4.10864 14.1931 4.78144 13.9912 5.52251Z" fill="#A51E1B"/>
<path d="M10.8496 5.22609C11.6177 4.45795 11.2441 2.83887 10.015 1.60978C8.78588 0.380696 7.1668 0.00702699 6.39866 0.77517C5.63052 1.54331 6.00418 3.16239 7.23327 4.39148C8.46236 5.62056 10.0814 5.99423 10.8496 5.22609Z" fill="#DB4437"/>
<path d="M10.3838 5.52251C9.53781 5.84126 8.25118 5.41001 7.23381 4.39339C6.68124 3.85989 6.28297 3.18708 6.08105 2.44601C6.92668 2.12726 8.2133 2.55851 9.23105 3.57514C9.78362 4.10864 10.1819 4.78144 10.3838 5.52251Z" fill="#A51E1B"/>
<path d="M15.375 7.875H4.125V4.875H20.625V7.875H17.6314" fill="#F4B400"/>
<path d="M10.5 4.875H14.25V7.875H10.5V4.875Z" fill="#DB4437"/>
<path d="M9 17.6249H11.2234C11.62 17.6249 12.0004 17.4673 12.2809 17.1869C12.5613 16.9064 12.7189 16.526 12.7189 16.1294V16.1249C12.7189 15.7271 12.5608 15.3455 12.2795 15.0642C11.9982 14.7829 11.6167 14.6249 11.2189 14.6249H6L4.125 16.4999L3.375 16.5044V22.8749L7.88738 22.8651L17.8328 19.6402C17.8975 19.6187 17.955 19.5798 17.9989 19.5277L22.0463 14.7633C22.0709 14.7342 22.0895 14.7006 22.101 14.6643C22.1125 14.6279 22.1166 14.5897 22.1131 14.5518C22.1096 14.5138 22.0986 14.477 22.0807 14.4434C22.0628 14.4098 22.0383 14.3801 22.0088 14.356C21.5847 14.0137 21.046 13.8459 20.5025 13.8869C19.959 13.928 19.4516 14.1747 19.0838 14.5769L16.3013 17.6189L16.2878 17.6249H10.5" fill="#F0D0B4"/>
<path d="M21.846 14.25L18 18.7785C17.9561 18.8307 17.8986 18.8696 17.8339 18.891L7.8885 22.116L3.375 22.125V22.875L7.88738 22.8652L17.8328 19.6403C17.8975 19.6188 17.955 19.5799 17.9989 19.5278L22.0463 14.7634C22.0709 14.7343 22.0895 14.7007 22.101 14.6644C22.1125 14.628 22.1166 14.5898 22.1131 14.5519C22.1096 14.5139 22.0986 14.4771 22.0807 14.4435C22.0628 14.4099 22.0383 14.3802 22.0088 14.3561C21.957 14.3145 21.9 14.2853 21.846 14.25Z" fill="#ECC19C"/>
<path d="M0.375 18.375V15.75H3.375V23.625H0.375V21.375V18.375Z" fill="#4285F4"/>
<path d="M1.5 18.375V15.75H0.375V18.375V21.375V23.625H1.5V21.375V18.375Z" fill="#2B69B2"/>
<path d="M21.75 6H23.625V6.75H21.75V6Z" fill="#DB4437"/>
<path d="M21.4819 4.98633L22.7945 3.67376L23.3248 4.20409L22.0123 5.51666L21.4819 4.98633Z" fill="#DB4437"/>
<path d="M21.4819 7.7666L22.0123 7.23627L23.3248 8.54884L22.7945 9.07917L21.4819 7.7666Z" fill="#DB4437"/>
<path d="M1.125 6H3V6.75H1.125V6Z" fill="#DB4437"/>
<path d="M1.42139 8.54688L2.73395 7.23431L3.26428 7.76464L1.95172 9.07721L1.42139 8.54688Z" fill="#DB4437"/>
<path d="M1.42188 4.20215L1.95221 3.67182L3.26477 4.98439L2.73444 5.51472L1.42188 4.20215Z" fill="#DB4437"/>
</g>
<defs>
<clipPath id="clip0_3346_4839">
<rect width="24" height="24" fill="white"/>
</clipPath>
</defs>
</svg>
